<svg xmlns="http://www.w3.org/2000/svg" version="1.1" xmlns:xlink="http://www.w3.org/1999/xlink" xmlns:svgjs="http://svgjs.com/svgjs" width="1440" height="560" preserveAspectRatio="none" viewBox="0 0 1440 560"><g mask="url(&quot;#SvgjsMask1256&quot;)" fill="none"><rect width="1440" height="560" x="0" y="0" fill="url(#SvgjsLinearGradient1257)"></rect><path d="M1440 0L1280.87 0L1440 47.39z" fill="rgba(255, 255, 255, .1)"></path><path d="M1280.87 0L1440 47.39L1440 270.14L954.5199999999999 0z" fill="rgba(255, 255, 255, .075)"></path><path d="M954.52 0L1440 270.14L1440 328.77L713.31 0z" fill="rgba(255, 255, 255, .05)"></path><path d="M713.31 0L1440 328.77L1440 369.28999999999996L679.14 0z" fill="rgba(255, 255, 255, .025)"></path><path d="M0 560L529.21 560L0 470.4z" fill="rgba(0, 0, 0, .1)"></path><path d="M0 470.4L529.21 560L732.9200000000001 560L0 336.71999999999997z" fill="rgba(0, 0, 0, .075)"></path><path d="M0 336.72L732.9200000000001 560L797.5200000000001 560L0 333.25z" fill="rgba(0, 0, 0, .05)"></path><path d="M0 333.25L797.5200000000001 560L909.5800000000002 560L0 182.49z" fill="rgba(0, 0, 0, .025)"></path></g><defs><mask id="SvgjsMask1256"><rect width="1440" height="560" fill="#ffffff"></rect></mask><linearGradient x1="15.28%" y1="-39.29%" x2="84.72%" y2="139.29%" gradientUnits="userSpaceOnUse" id="SvgjsLinearGradient1257"><stop stop-color="#0e2a47" offset="0"></stop><stop stop-color="rgba(137, 189, 255, 1)" offset="1"></stop></linearGradient></defs></svg>